<?xml version="1.0" encoding="UTF-8" standalone="no"?><!DOCTYPE svg PUBLIC "-//W3C//DTD SVG 1.1//EN" "http://www.w3.org/Graphics/SVG/1.1/DTD/svg11.dtd"><svg width="100%" height="100%" viewBox="0 0 384 384" version="1.1" xmlns="http://www.w3.org/2000/svg" xmlns:xlink="http://www.w3.org/1999/xlink" xml:space="preserve" xmlns:serif="http://www.serif.com/" style="fill-rule:evenodd;clip-rule:evenodd;stroke-linejoin:round;stroke-miterlimit:2;"><path d="M192,47.706l119.32,72.147l0,144.294l-119.32,72.147l-119.32,-72.147l0,-144.294l119.32,-72.147Z"/><path d="M192,47.706l119.32,72.147l0,144.294l-119.32,72.147l-119.32,-72.147l0,-144.294l119.32,-72.147Z"/><clipPath id="_clip1"><path d="M192,47.706l119.32,72.147l0,144.294l-119.32,72.147l-119.32,-72.147l0,-144.294l119.32,-72.147Z"/></clipPath><g clip-path="url(#_clip1)"><path d="M316.359,232.377l0,-80.754l-132.827,0c-22.464,0 -40.702,18.093 -40.702,40.377c0,22.284 18.238,40.377 40.702,40.377l132.827,0Z" style="fill:#c18c9f;fill-opacity:0.93;"/></g></svg>